<svg width="24" height="24" viewBox="0 0 24 24" fill="none" xmlns="http://www.w3.org/2000/svg">
<path d="M19 20.9999L19 2.99991C18.9994 2.81767 18.9491 2.63904 18.8546 2.48324C18.7601 2.32744 18.6248 2.20037 18.4634 2.11572C18.302 2.03106 18.1206 1.99203 17.9387 2.00281C17.7568 2.01359 17.5812 2.07379 17.431 2.17691L4.43098 11.1769C3.89198 11.5499 3.89198 12.4479 4.43098 12.8219L17.431 21.8219C17.5809 21.9261 17.7566 21.9872 17.9388 21.9985C18.121 22.0099 18.3029 21.9711 18.4646 21.8864C18.6263 21.8017 18.7617 21.6742 18.8561 21.5179C18.9505 21.3617 19.0003 21.1825 19 20.9999Z" fill="white"/>
</svg>
